<?xml version="1.0" encoding="UTF-8" standalone="no"?>
<!DOCTYPE svg PUBLIC "-//W3C//DTD SVG 1.1//EN" "http://www.w3.org/Graphics/SVG/1.1/DTD/svg11.dtd">
<svg xmlns="http://www.w3.org/2000/svg" xmlns:xlink="http://www.w3.org/1999/xlink" xmlns:serif="http://www.serif.com/" width="100%" height="100%" viewBox="0 0 413 99" version="1.1" xml:space="preserve" style="fill-rule:evenodd;clip-rule:evenodd;stroke-linejoin:round;stroke-miterlimit:2;">
    <g transform="matrix(1,0,0,1,-743.577,-553.421)">
        <g id="cms" transform="matrix(0.966952,0,0,0.971705,216.109,-196.639)">
            <path d="M545.594,856.424C547.99,874.267 562.26,874.267 575.357,873.09C620.567,868.349 681.27,836.19 714.602,807.646C719.343,802.863 727.657,798.117 722.912,789.766C718.17,783.843 712.206,787.411 707.464,790.98C674.133,823.093 632.491,843.327 587.281,855.21C557.518,863.52 561.087,843.327 573.007,825.447C581.321,813.564 601.551,793.33 617.044,790.938C623.004,789.766 626.573,790.938 624.177,796.898C622.963,802.863 620.567,811.214 627.704,813.564C634.841,815.96 638.41,809.995 639.587,804.035C644.37,788.588 640.801,771.923 620.567,773.1C599.16,774.314 577.753,790.98 564.656,807.604C553.95,819.524 544.421,839.758 545.594,856.424Z" style="fill:rgb(27,27,27);fill-rule:nonzero;"/>
            <path d="M712.903,794.128C707.151,812.848 701.103,831.823 695.101,850.46C693.088,856.674 687.923,867.255 694.977,871.913C702.197,876.654 708.074,866.622 710.927,861.544C724.236,837.783 738.465,810.457 761.765,795.093C765.245,792.909 778.809,786.151 782.502,788.459C785.397,792.406 779.224,806.214 777.253,810.623C772.974,820.364 763.357,836.148 761.344,845.464C758.824,857.306 767.932,860.201 777.128,856.17C793.54,849.033 817.51,828.005 830.778,815.198C839.845,806.847 839.549,812.807 837.365,821.163C833.252,836.818 823.724,871.493 849.332,873.422C881.906,875.943 913.894,833.42 932.531,811.085C936.52,806.302 946.049,797.443 940.592,791.187C934.59,784.304 926.11,792.614 921.996,797.318C908.687,812.47 875.526,855.413 855.878,857.431C838.667,859.194 857.937,806.635 860.541,799.373C862.974,792.614 869.691,780.357 863.181,774.272C858.103,770.201 853.32,773.137 849.29,776.872C832.874,792.152 816.166,806.302 799.376,821.034C794.464,825.359 784.307,835.308 790.226,820.826C795.008,809.114 799.168,802.9 799.754,789.553C799.588,780.191 796.393,773.474 786.32,772.172C769.363,769.947 751.313,781.825 739.6,792.993C737.878,794.756 728.853,804.497 727.676,804.959C724.947,806.214 731.96,790.098 732.588,788.334C734.185,783.381 735.399,775.445 729.232,773.012C721.882,770.113 717.939,777.966 716.093,783.589C714.159,789.507 714.749,788.039 712.903,794.128Z" style="fill:rgb(27,27,27);fill-rule:nonzero;"/>
            <path d="M928.058,853.488C921.258,855.293 905.723,857.057 905.432,865.787C905.137,873.552 912.565,874.226 918.359,873.173C932.508,870.616 957.863,861.59 967.64,850.967C974.528,842.824 973.143,831.112 967.894,822.589C966.426,820.364 965.083,818.559 963.195,816.671C958.91,812.391 946.612,806.094 946.487,800.721C946.358,794.802 961.68,790.98 966.468,788.547C972.931,784.683 973.979,776.456 967.179,773.645L966.551,773.437C957.272,770.875 936.871,783.007 930.657,789.766C913.239,808.74 946.067,818.647 953.998,831.365C961.976,844.126 936.326,851.263 928.058,853.488Z" style="fill:rgb(27,27,27);fill-rule:nonzero;"/>
        </g>
    </g>
</svg>
